<svg xmlns="http://www.w3.org/2000/svg" viewBox="0 0 512 512" xml:space="preserve"><path style="fill:#e0e0e3" d="M314.866 201.838V36.653H197.135v164.976c0 14.279-7.089 27.747-19.117 35.441-40.419 25.852-67.161 71.207-66.941 122.797.34 79.96 66.382 145.055 146.339 144.29 79.388-.76 143.509-65.351 143.509-144.919 0-51.284-26.641-96.341-66.835-122.099-12.013-7.699-19.224-21.033-19.224-35.301"/><path style="fill:#d2d1d3" d="M197.131 36.655H314.86v28.642H197.131z"/><path style="fill:#e0e0e3" d="M319.064 36.653H192.936c-7.74 0-14.014-6.275-14.014-14.014v-.788c0-7.74 6.275-14.014 14.014-14.014h126.128c7.74 0 14.014 6.275 14.014 14.014v.788c0 7.739-6.275 14.014-14.014 14.014"/><path style="fill:#00abe7" d="M366.712 361.275c0 15.024-2.999 29.346-8.423 42.407-17.223 41.524-59 70.296-107.222 68.207-40.207-1.752-75.116-25.281-92.998-59.112a109.2 109.2 0 0 1-12.543-44.271c-.771-11.926.378-23.46 3.139-34.363.701-2.775 2.957-4.863 5.759-5.396 17.028-3.294 37.852-10.524 60.933-25.211 61.663-39.24 93.194 31.995 128.931 6.349.028-.014.042-.042.07-.056 3.728-2.677 8.969-1.528 11.002 2.592 7.261 14.729 11.352 31.322 11.352 48.854"/><path style="fill:#009ae5" d="M358.289 403.682c-17.223 41.524-59 70.296-107.222 68.207-40.207-1.752-75.116-25.281-92.998-59.112 16.313-3.587 35.835-10.805 57.29-24.455 61.663-39.24 93.194 31.995 128.931 6.349.028-.014.042-.042.07-.056 3.728-2.677 8.969-1.528 11.002 2.592a104 104 0 0 1 2.927 6.475"/><path d="M367.954 255.309c-2.946-3.171-7.905-3.353-11.076-.409s-3.353 7.904-.409 11.076c23.615 25.422 36.618 58.544 36.618 93.261 0 74.871-60.897 136.366-135.749 137.082q-.666.006-1.331.006c-36.092 0-70.187-14.048-96.138-39.643-26.257-25.898-40.803-60.293-40.958-96.85-.201-47.246 23.474-90.672 63.327-116.162 14.234-9.104 22.732-24.821 22.732-42.043V44.49h102.057v157.348c0 17.074 8.536 32.737 22.833 41.898a7.835 7.835 0 0 0 10.826-2.37 7.836 7.836 0 0 0-2.37-10.826c-9.778-6.267-15.616-16.996-15.616-28.702V44.162c10.319-1.741 18.213-10.716 18.213-21.523v-.788C340.915 9.802 331.113 0 319.064 0h-76.728a7.837 7.837 0 0 0 0 15.674h76.728a6.184 6.184 0 0 1 6.177 6.177v.788a6.184 6.184 0 0 1-6.177 6.177H192.936a6.184 6.184 0 0 1-6.177-6.177v-.788a6.184 6.184 0 0 1 6.177-6.177h18.808A7.837 7.837 0 0 0 211.745 0h-18.808c-12.049 0-21.851 9.802-21.851 21.851v.788c0 10.806 7.894 19.782 18.213 21.523v157.467c0 11.849-5.795 22.629-15.503 28.838-44.403 28.4-70.779 76.786-70.556 129.433.173 40.759 16.377 79.094 45.625 107.942C177.772 496.353 215.768 512 256.004 512q.743 0 1.486-.007c40.492-.388 78.498-16.449 107.016-45.226 28.538-28.796 44.256-66.984 44.256-107.529 0-38.688-14.493-75.597-40.808-103.929"/><path d="M339.719 303.518c-11.342 8.141-21.923 3.492-39.647-5.426-22.086-11.114-49.573-24.946-86.715-2.534a7.836 7.836 0 0 0-2.66 10.758 7.835 7.835 0 0 0 10.758 2.66c29.729-17.94 51.001-7.236 71.572 3.116 17.746 8.929 36.09 18.162 55.575 4.342 6.817 14.036 10.273 29.121 10.273 44.845 0 28.326-11.271 54.718-31.738 74.315-20.454 19.585-47.351 29.687-75.732 28.46-52.523-2.281-94.68-43.575-98.065-96.054a103.1 103.1 0 0 1 2.836-31.613c12.186-2.379 24.551-6.356 36.757-11.822a7.836 7.836 0 0 0 3.949-10.356 7.834 7.834 0 0 0-10.355-3.949c-11.197 5.014-22.499 8.644-33.588 10.789-5.782 1.118-10.445 5.507-11.879 11.181a118.7 118.7 0 0 0-3.36 36.778c1.872 29.043 14.452 56.349 35.42 76.89 20.971 20.544 48.532 32.552 77.606 33.815q2.676.116 5.335.116c30.718 0 59.631-11.576 81.916-32.914 23.583-22.581 36.571-52.994 36.571-85.636 0-18.355-4.091-35.961-12.158-52.329a15.03 15.03 0 0 0-9.863-7.943 15.36 15.36 0 0 0-12.694 2.43zm-108.244-88.142h21.722a7.837 7.837 0 0 0 0-15.674h-21.722a7.837 7.837 0 0 0 0 15.674m0-34.335h21.722a7.837 7.837 0 0 0 0-15.674h-21.722a7.837 7.837 0 0 0 0 15.674m0-34.335h21.722a7.837 7.837 0 0 0 0-15.674h-21.722a7.837 7.837 0 0 0 0 15.674m0-34.335h21.722a7.837 7.837 0 0 0 0-15.674h-21.722a7.837 7.837 0 0 0 0 15.674"/><g/><g/><g/><g/><g/><g/><g/><g/><g/><g/><g/><g/><g/><g/><g/></svg>
